<?xml version="1.0" standalone="no"?>

<svg version="1.0" xmlns="http://www.w3.org/2000/svg"
 width="125px" height="125px" viewBox="0 0 2242.000000 2083.000000"
 preserveAspectRatio="xMidYMid meet">

<g transform="translate(0.000000,2083.000000) scale(0.100000,-0.100000)"
fill="#ffffff" stroke="none">
<path d="M19465 20520 c-486 -18 -1005 -22 -1283 -11 -219 10 -287 10 -298 0
-20 -17 -20 -142 1 -159 9 -7 80 -19 167 -26 172 -16 211 -25 259 -57 46 -31
57 -59 68 -168 10 -102 27 -1059 19 -1059 -3 0 -22 7 -41 15 -107 45 -246 -19
-295 -135 -10 -24 -13 -57 -10 -106 6 -85 34 -142 100 -199 43 -37 43 -38 13
-31 -69 15 -193 86 -239 137 -61 68 -84 135 -96 281 -12 149 -20 167 -49 110
-12 -23 -23 -42 -25 -42 -2 0 -16 19 -31 42 l-28 42 -24 -28 c-13 -16 -26 -26
-29 -23 -10 10 -5 187 6 243 41 196 177 313 303 260 21 -8 35 -10 31 -5 -11
18 -71 39 -112 39 -21 0 -61 -12 -90 -26 -175 -87 -262 -395 -179 -631 14 -40
24 -73 22 -73 -1 0 -19 7 -38 15 -50 21 -143 19 -192 -4 -68 -31 -125 -111
-125 -173 0 -44 21 -99 51 -132 16 -19 29 -36 29 -40 0 -3 -13 -6 -30 -6 -30
0 -30 -1 -30 -55 l0 -55 2255 0 2255 0 0 55 0 54 -117 3 -118 3 65 31 c87 41
124 74 156 141 74 151 -10 328 -166 349 -92 12 -195 -45 -221 -123 -37 -114
39 -233 150 -233 51 0 101 25 126 64 21 31 22 94 2 133 -20 38 -79 67 -115 58
l-27 -8 29 -8 c106 -30 100 -169 -8 -169 -111 0 -119 161 -10 206 47 20 80 17
126 -8 78 -44 108 -145 70 -231 -35 -80 -112 -133 -234 -162 -179 -42 -385 7
-544 130 -83 65 -295 257 -290 263 3 2 31 -12 63 -31 258 -155 439 -163 587
-27 60 55 89 118 89 189 0 124 -94 221 -214 221 -66 0 -111 -22 -156 -76 -44
-55 -79 -59 -117 -13 -14 17 -26 34 -26 38 0 3 13 38 29 76 31 73 27 69 114
89 38 9 34 21 -16 42 l-42 17 0 156 c0 184 -12 241 -80 376 -129 257 -337 389
-695 440 -128 18 -475 25 -745 15z m333 -255 c363 -65 552 -247 592 -570 11
-88 5 -275 -9 -275 -4 0 -21 19 -39 41 -63 82 -190 160 -317 194 -90 24 -234
22 -320 -5 -200 -63 -376 -198 -524 -402 -58 -81 -64 -86 -88 -77 -38 14 -111
67 -123 89 -7 12 -9 101 -8 237 3 250 1 245 92 199 l48 -24 -5 35 c-7 43 -50
91 -92 102 l-30 7 2 195 c1 107 5 204 7 215 5 18 18 23 83 33 218 34 559 36
731 6z m283 -671 c41 -13 102 -41 135 -62 78 -51 154 -133 154 -167 0 -30 0
-30 -70 -5 -122 43 -264 20 -415 -65 -143 -82 -263 -136 -332 -150 -69 -15
-291 -19 -347 -6 l-28 6 59 80 c176 236 364 361 603 399 49 8 166 -7 241 -30z
m189 -375 c27 -6 50 -13 50 -16 0 -22 -99 -159 -150 -207 -51 -49 -63 -56 -76
-45 -12 10 -20 9 -42 -8 -15 -11 -31 -29 -37 -41 -9 -19 -62 -48 -122 -66 -35
-11 -63 43 -63 119 0 137 88 233 245 268 39 9 145 7 195 -4z m976 -27 c42 -27
40 -101 -3 -152 -57 -69 -156 -93 -262 -65 -65 17 -214 86 -226 105 -3 5 8 28
26 50 l32 39 35 -31 c97 -84 225 -76 302 21 33 40 67 52 96 33z m-2224 -54
c29 -18 55 -33 57 -35 4 -2 -99 -152 -110 -159 -5 -3 -9 47 -9 110 0 64 2 116
4 116 3 0 29 -14 58 -32z m798 -12 c0 -2 -7 -21 -16 -42 -25 -59 -22 -169 4
-221 12 -23 18 -44 13 -48 -5 -3 -30 -8 -55 -11 l-46 -7 0 81 c0 111 16 176
52 218 26 29 48 43 48 30z m-241 -49 c-153 -123 -235 -184 -326 -244 l-112
-74 -90 7 -91 7 0 35 c0 28 16 57 82 146 45 61 85 115 88 119 4 4 35 1 71 -8
84 -19 216 -18 304 4 62 15 87 18 74 8z m-1212 -111 c28 -30 33 -43 33 -85 0
-43 -4 -53 -31 -75 -38 -33 -73 -33 -104 -1 -30 29 -32 56 -5 80 26 23 25 35
0 35 -34 0 -70 -44 -70 -86 0 -82 61 -131 154 -121 l56 6 0 -66 0 -66 -67 5
c-79 6 -138 32 -178 80 -120 143 -40 350 129 335 42 -4 55 -10 83 -41z m1298
-70 l0 -114 -65 -6 c-213 -19 -236 -19 -220 -3 10 10 283 237 285 237 0 0 0
-51 0 -114z m1098 -34 c67 -59 147 -127 177 -151 48 -39 164 -102 232 -127 14
-5 -88 -10 -267 -12 -274 -3 -294 -1 -367 19 l-77 22 28 36 c44 56 80 134 100
221 21 86 27 100 42 100 6 0 65 -49 132 -108z m-205 11 c-14 -67 -69 -183
-103 -215 -17 -18 -39 -28 -56 -28 -27 0 -29 3 -29 37 l0 36 -23 -21 c-31 -29
-33 -28 -47 13 -6 19 -15 35 -19 35 -4 0 -16 -16 -27 -35 -21 -40 -21 -40
-169 -21 -55 7 -93 16 -85 19 8 3 58 17 110 32 129 36 280 97 370 150 41 24
78 44 81 45 4 0 2 -21 -3 -47z m-2958 -10 c37 -18 88 -60 160 -133 58 -58 120
-115 138 -125 17 -11 32 -23 32 -27 0 -4 -79 -8 -175 -8 l-175 0 29 40 c41 57
48 109 22 163 -12 24 -33 49 -47 55 -55 26 -123 10 -162 -38 -20 -24 -33 -62
-27 -78 4 -10 12 -6 34 16 31 34 68 47 106 38 18 -5 26 -15 31 -41 13 -72 -17
-112 -93 -122 -87 -11 -153 49 -153 140 0 138 130 193 280 120z"/>
<path d="M11165 19173 c-564 -8 -1226 -27 -3455 -100 -654 -21 -2032 -24
-2585 -5 -660 23 -1166 42 -1619 62 -354 16 -452 18 -465 8 -9 -6 -33 -28 -53
-47 l-38 -35 0 -326 0 -326 32 -30 c18 -16 42 -37 53 -46 17 -14 110 -24 530
-58 903 -71 1151 -125 1367 -295 187 -147 237 -406 278 -1445 10 -251 35
-3879 26 -3887 -2 -3 -25 7 -49 21 -64 38 -191 82 -287 100 -476 91 -983 -218
-1146 -698 -75 -219 -72 -490 8 -731 39 -119 115 -263 193 -366 76 -101 218
-240 301 -294 34 -22 70 -45 80 -52 11 -7 13 -11 4 -8 -278 74 -478 157 -736
304 -442 251 -697 610 -784 1106 -24 139 -37 266 -50 525 -12 240 -24 338 -51
438 -18 68 -63 172 -74 172 -3 0 -50 -91 -106 -202 l-101 -201 -27 44 c-163
265 -224 359 -231 359 -18 0 -151 -164 -179 -222 -33 -66 -31 -68 -58 67 -25
127 -25 533 1 725 66 504 227 880 486 1141 214 217 455 313 701 281 164 -21
275 -71 410 -185 54 -46 69 -54 69 -39 0 38 -104 153 -194 214 -255 175 -599
182 -906 17 -273 -148 -522 -449 -683 -830 -45 -105 -130 -361 -163 -489 -59
-234 -81 -602 -50 -870 34 -293 114 -589 221 -826 l33 -72 -91 40 c-266 115
-508 143 -741 84 -305 -78 -549 -266 -660 -508 -58 -127 -71 -194 -70 -368 0
-139 3 -164 28 -245 54 -177 134 -307 257 -418 l62 -57 -136 0 -137 0 0 -275
0 -275 9910 0 9910 0 0 275 0 275 -512 1 -513 0 124 44 c136 48 351 151 449
214 156 102 334 312 416 493 81 177 111 320 110 523 -1 140 -4 173 -27 260
-61 228 -196 438 -367 567 -80 62 -241 140 -339 167 -401 110 -817 -31 -1029
-348 -148 -220 -181 -491 -93 -749 40 -116 84 -185 176 -277 68 -69 96 -89
185 -132 58 -28 126 -56 151 -62 230 -53 477 19 649 189 174 173 217 439 109
667 -42 89 -168 217 -254 259 -57 27 -67 29 -190 29 -107 0 -138 -3 -173 -19
-72 -33 -58 -46 93 -86 153 -41 241 -106 294 -219 22 -48 26 -69 26 -151 -1
-81 -4 -103 -27 -151 -34 -73 -86 -124 -167 -163 -59 -27 -76 -31 -157 -31
-84 0 -95 2 -166 38 -91 45 -157 113 -187 192 -65 173 -41 341 69 487 89 117
207 184 381 214 114 19 183 13 291 -26 203 -74 366 -245 435 -455 22 -68 27
-102 30 -235 6 -213 -19 -326 -108 -478 -47 -79 -227 -258 -324 -321 -238
-156 -557 -265 -915 -313 -158 -21 -547 -16 -715 10 -319 49 -575 131 -866
277 -349 175 -657 412 -1279 985 -124 113 -294 269 -377 344 -84 76 -151 142
-148 146 3 5 67 -31 143 -79 546 -347 1032 -552 1426 -601 141 -18 443 -8 568
19 403 87 786 363 990 713 200 344 183 787 -45 1122 -55 81 -124 145 -242 225
-230 154 -463 205 -720 157 -169 -32 -244 -66 -369 -171 -55 -46 -180 -192
-233 -270 -55 -84 -139 -112 -245 -81 -97 28 -206 149 -245 272 l-16 53 42 91
c48 103 115 275 156 399 26 80 29 84 70 102 24 11 123 35 219 54 175 34 263
64 274 93 9 24 -71 88 -165 133 -78 37 -148 59 -237 74 -38 6 -38 7 -32 43
174 983 -2 1900 -510 2665 -434 653 -1027 1100 -1778 1343 -594 192 -1322 295
-2286 324 -301 9 -427 10 -855 3z m-475 -1092 c851 -70 1373 -195 1878 -451
452 -228 787 -523 1021 -898 285 -456 431 -1036 431 -1707 0 -233 -32 -649
-56 -714 -3 -9 -24 15 -55 60 -120 174 -284 344 -460 476 -705 529 -1582 712
-2394 498 -647 -170 -1247 -540 -1810 -1116 -237 -242 -472 -535 -700 -869
-43 -63 -89 -129 -102 -147 l-23 -32 -72 30 c-241 99 -442 241 -569 401 l-42
53 6 953 c3 525 8 956 11 959 3 4 30 8 60 11 116 9 306 -60 444 -162 34 -25
66 -46 71 -46 28 0 29 173 1 261 -26 85 -66 146 -149 228 -103 102 -272 181
-386 181 l-36 0 5 148 c4 81 11 280 16 442 16 447 40 883 68 1190 l7 75 135
27 c368 74 873 132 1390 158 220 11 1140 4 1310 -9z m1366 -2902 c155 -15 350
-52 495 -95 573 -166 1104 -537 1334 -932 36 -62 36 -63 25 -120 -7 -31 -15
-62 -19 -68 -4 -8 -42 3 -116 33 -577 233 -1113 206 -1741 -88 -131 -60 -252
-128 -507 -282 -584 -351 -1060 -530 -1537 -579 -171 -17 -821 -17 -960 0
-112 14 -274 40 -302 48 -20 6 15 58 233 349 195 262 325 412 548 635 559 557
1121 896 1726 1040 109 26 278 54 380 63 94 8 340 6 441 -4z m1299 -1752 c104
-20 240 -55 282 -72 l34 -14 -47 -93 c-140 -279 -306 -509 -544 -751 -118
-122 -313 -287 -337 -287 -5 0 -16 23 -26 51 -10 27 -25 53 -33 56 -22 8 -151
-60 -217 -115 -71 -59 -122 -129 -144 -201 -18 -54 -18 -55 -98 -91 -100 -46
-294 -120 -402 -153 l-81 -25 -25 27 c-146 159 -204 384 -162 632 66 397 258
685 578 863 135 76 383 153 584 181 130 19 525 14 638 -8z m4367 -127 c132
-49 203 -253 149 -428 -54 -180 -274 -400 -489 -492 -130 -55 -229 -74 -397
-74 -166 -1 -286 18 -477 75 -216 64 -525 206 -790 362 l-137 81 49 53 c27 30
93 111 145 181 l97 127 96 -96 c152 -151 308 -243 477 -280 86 -19 313 -17
397 4 160 39 317 121 424 219 26 24 80 88 121 143 41 56 91 110 111 122 49 30
149 31 224 3z m-9782 -232 c47 -30 130 -79 185 -108 55 -29 102 -55 104 -57 9
-7 -429 -645 -475 -693 -12 -12 -14 57 -14 493 l0 508 58 -44 c31 -24 95 -69
142 -99z m3521 -106 c-38 -75 -86 -232 -108 -352 -22 -119 -24 -434 -4 -525
29 -131 86 -264 155 -360 25 -35 32 -51 23 -56 -14 -8 -296 -73 -374 -87 l-51
-9 -11 61 c-48 277 -36 579 33 854 29 113 91 297 111 328 12 19 240 204 251
204 2 0 -9 -26 -25 -58z m-1030 -150 c-19 -15 -193 -153 -385 -307 -193 -154
-389 -310 -436 -346 -251 -195 -630 -453 -916 -625 l-178 -107 -185 7 c-209 7
-484 23 -548 32 l-43 5 0 151 0 150 98 122 c179 222 405 527 611 827 l52 77
47 -15 c308 -94 593 -129 957 -120 315 8 625 60 870 147 44 15 82 28 85 28 3
1 -10 -11 -29 -26z m-5579 -348 c139 -33 288 -151 356 -280 l32 -62 0 -181 c0
-162 -2 -186 -20 -221 -31 -60 -112 -135 -187 -172 -61 -30 -76 -33 -153 -33
-75 0 -91 4 -139 30 -94 52 -151 144 -151 242 1 101 49 172 147 214 24 10 43
21 43 24 0 22 -34 64 -62 76 -48 20 -135 17 -190 -8 -141 -64 -228 -230 -215
-413 6 -92 36 -174 94 -262 157 -239 480 -329 765 -213 34 14 63 25 65 25 2 0
3 -123 3 -274 l0 -275 -47 -7 c-63 -9 -286 3 -403 21 -170 28 -293 79 -425
177 -197 146 -331 346 -397 588 -33 123 -33 341 0 454 65 223 209 394 417 496
158 76 306 94 467 54z m5947 -135 c-32 -202 -31 -452 1 -634 33 -188 40 -168
-65 -182 -175 -23 -362 -42 -560 -58 -205 -16 -637 -36 -643 -30 -2 2 43 38
100 81 227 173 753 603 1113 912 39 33 71 59 73 57 1 -1 -7 -67 -19 -146z
m4416 -130 c66 -57 237 -208 380 -334 510 -451 772 -674 925 -782 263 -187
549 -331 875 -439 l130 -43 -1313 -1 -1313 0 -122 41 c-67 22 -192 58 -277 80
-85 22 -156 41 -157 43 -2 2 11 18 28 37 61 64 187 242 249 349 156 274 272
613 331 971 l22 134 46 37 c38 30 49 34 61 24 8 -7 69 -59 135 -117z m-455
-123 c0 -100 -99 -441 -191 -655 -92 -214 -222 -413 -321 -492 -29 -23 -81
-55 -116 -72 -57 -27 -68 -28 -120 -21 l-57 9 -8 85 c-7 87 -44 230 -58 230
-4 0 -12 -7 -17 -16 -20 -35 -126 -133 -171 -157 l-48 -27 -5 68 c-6 74 -31
148 -79 232 l-32 54 -47 -51 c-25 -28 -79 -106 -119 -174 -40 -68 -74 -125
-75 -126 -1 -2 -97 10 -212 27 -223 31 -590 75 -714 85 -41 4 -82 9 -90 11 -8
3 80 29 195 58 239 61 285 74 553 157 408 128 770 273 1127 454 210 106 433
234 540 309 60 42 65 43 65 12z m-13412 -92 c127 -26 253 -71 376 -133 224
-114 453 -284 560 -417 212 -266 494 -532 782 -739 60 -43 113 -82 118 -87 6
-4 -330 -8 -745 -8 l-754 0 80 83 c141 144 205 304 205 506 0 188 -54 334
-165 447 -97 99 -215 144 -377 144 -161 0 -290 -56 -424 -183 -101 -95 -148
-179 -165 -297 -12 -75 -2 -163 21 -200 12 -20 37 4 105 100 70 101 130 152
223 191 109 45 192 56 264 35 78 -22 108 -59 137 -168 85 -315 -110 -538 -470
-538 -269 0 -472 141 -564 390 -40 108 -47 281 -16 396 49 177 149 295 332
393 167 88 325 116 477 85z"/>
<path d="M18531 18150 c-52 -131 -102 -247 -112 -256 -17 -15 -20 -15 -51 3
-18 10 -68 61 -111 112 l-77 93 35 41 c46 53 60 105 42 149 -30 70 -81 88
-237 87 -58 -1 -94 -4 -80 -8 l25 -7 3 -219 c1 -121 0 -230 -3 -242 -3 -12
-13 -23 -23 -25 -9 -2 21 -4 68 -4 47 -1 76 1 65 4 -40 9 -45 21 -45 118 l0
94 49 0 49 0 71 -90 c95 -120 102 -124 220 -125 53 -1 88 0 77 3 -22 5 -19 38
14 125 l21 57 89 0 88 0 31 -77 c17 -43 31 -83 31 -89 0 -17 25 -24 78 -23 35
0 42 2 27 8 -37 16 -53 46 -145 271 -50 124 -94 228 -98 232 -4 4 -50 -100
-101 -232z m-366 180 c52 -49 58 -155 11 -199 -20 -19 -33 -22 -82 -19 l-59 3
-3 124 -3 124 56 -5 c40 -3 62 -11 80 -28z m493 -139 c17 -48 32 -93 32 -100
0 -11 -131 -17 -142 -5 -4 3 7 42 23 87 16 45 32 88 34 95 9 26 21 9 53 -77z"/>
<path d="M19691 18377 c-53 -20 -81 -60 -81 -114 0 -43 4 -50 53 -97 29 -28
77 -71 106 -96 50 -42 54 -48 54 -89 0 -63 -34 -91 -107 -91 -56 0 -106 26
-106 56 0 8 -4 14 -10 14 -5 0 -10 -16 -10 -35 0 -45 23 -57 110 -57 111 0
170 46 170 131 0 63 -25 100 -109 161 -39 28 -80 63 -91 77 -57 73 19 150 121
123 30 -8 43 -19 53 -43 l14 -32 1 42 c1 23 -3 44 -8 47 -21 13 -128 15 -160
3z"/>
<path d="M20199 18377 c-65 -19 -109 -47 -146 -95 -58 -77 -70 -180 -29 -267
52 -114 172 -168 307 -141 129 27 209 129 209 266 0 67 -18 115 -60 163 -57
66 -188 100 -281 74z m124 -18 c111 -31 177 -170 147 -313 -20 -99 -89 -156
-187 -156 -133 1 -219 107 -216 268 2 108 54 180 146 202 46 11 67 11 110 -1z"/>
<path d="M21399 18381 c-45 -14 -68 -31 -84 -61 -33 -63 -11 -120 71 -186 143
-115 163 -157 104 -216 -29 -28 -35 -30 -90 -26 -66 5 -96 24 -103 67 -2 14
-5 2 -6 -26 0 -29 2 -53 7 -53 4 -1 27 -5 52 -10 98 -19 186 22 211 97 22 68
-15 131 -120 203 -70 47 -89 68 -97 106 -12 63 58 105 138 83 30 -8 43 -18 53
-42 l14 -32 1 46 0 46 -46 7 c-56 7 -71 7 -105 -3z"/>
<path d="M17475 18373 c11 -3 23 -10 27 -17 9 -13 10 -421 2 -453 -3 -12 -13
-23 -22 -25 -8 -2 29 -4 84 -5 120 -3 168 9 209 50 42 42 52 95 28 145 -16 32
-62 73 -95 84 -7 3 1 21 21 45 51 64 42 126 -22 160 -24 13 -61 18 -142 19
-60 2 -101 0 -90 -3z m206 -42 c37 -37 41 -103 8 -145 -19 -24 -27 -27 -73
-24 l-51 3 -3 84 c-2 46 -1 90 2 98 3 8 21 13 46 13 33 0 48 -6 71 -29z m34
-233 c60 -65 53 -174 -12 -199 -30 -12 -109 -7 -124 8 -4 4 -11 59 -15 122
l-7 114 63 -5 c57 -4 66 -8 95 -40z"/>
<path d="M18990 18147 c0 -238 -3 -258 -40 -269 -8 -3 18 -5 58 -5 60 0 69 2
50 11 -28 14 -35 69 -37 270 l-1 129 201 -206 c110 -114 205 -207 210 -207 5
0 9 105 9 245 0 245 0 246 23 255 16 6 1 8 -53 8 -41 -1 -63 -3 -48 -5 15 -2
29 -12 32 -21 10 -37 18 -384 9 -381 -6 2 -97 95 -203 207 -107 111 -197 202
-202 202 -4 0 -8 -105 -8 -233z"/>
<path d="M20678 18138 c-3 -240 -3 -243 -25 -254 -19 -9 -9 -11 55 -10 42 0
67 2 54 4 -12 2 -26 11 -31 20 -5 9 -12 100 -15 202 l-7 185 208 -210 208
-210 5 250 c3 138 7 251 8 252 1 1 12 4 25 6 12 2 -12 4 -53 5 -45 0 -65 -3
-50 -7 22 -6 26 -14 32 -61 3 -30 6 -120 7 -200 l0 -145 -202 208 c-111 114
-205 208 -209 207 -4 0 -9 -109 -10 -242z"/>
<path d="M17290 17755 c0 -52 1 -55 25 -55 31 0 31 -5 0 -42 -49 -58 -56 -142
-17 -216 22 -43 103 -96 160 -106 35 -5 106 8 156 29 17 7 18 6 11 -11 -54
-126 -70 -280 -40 -394 37 -145 112 -255 199 -296 77 -36 151 -29 211 20 14
12 8 10 -20 -4 -79 -40 -176 -15 -239 63 -44 55 -61 90 -81 166 -15 59 -24
256 -11 268 3 3 16 -7 29 -23 l24 -28 28 42 c15 23 29 42 31 42 2 0 13 -19 25
-42 18 -35 23 -39 31 -24 5 9 13 70 18 135 14 183 56 268 168 340 50 32 171
85 178 78 2 -2 -18 -26 -45 -54 -55 -57 -81 -121 -81 -200 0 -64 16 -107 59
-155 59 -67 159 -95 240 -67 18 6 33 10 35 8 5 -8 -13 -426 -24 -539 -8 -82
-16 -120 -28 -133 -9 -11 -57 -40 -107 -64 -49 -25 -93 -51 -98 -57 -4 -6 -6
-36 -5 -66 l3 -55 75 2 c41 2 280 2 530 1 1038 -5 1063 -4 1199 20 300 54 589
192 819 391 l83 72 31 -22 c41 -29 121 -36 171 -16 58 25 50 37 -34 51 -43 7
-89 40 -89 63 0 9 23 47 51 85 l51 69 35 -41 c47 -54 81 -70 150 -70 166 0
268 173 192 324 -30 61 -109 131 -172 154 -48 17 -49 18 -43 52 4 19 9 64 12
100 9 111 6 107 77 119 276 48 518 -83 493 -267 -15 -114 -114 -178 -210 -138
-75 31 -103 130 -51 181 54 55 145 19 145 -56 0 -46 -16 -67 -65 -83 l-40 -14
29 -7 c39 -10 91 16 112 56 36 70 10 150 -60 183 -125 59 -249 -52 -222 -199
14 -75 108 -144 196 -145 49 0 134 35 162 66 89 103 81 261 -19 361 -22 22
-61 48 -86 59 -26 10 -47 22 -47 27 0 4 45 7 100 7 l100 0 0 55 0 55 -2255 0
-2255 0 0 -55z m585 -98 c-27 -23 -88 -80 -135 -128 -132 -134 -240 -175 -335
-129 -60 29 -85 69 -85 136 0 95 73 157 164 140 72 -14 103 -71 76 -142 -10
-25 -14 -26 -58 -21 -37 4 -52 12 -73 37 -32 38 -46 26 -29 -26 24 -71 132
-110 194 -69 33 22 59 90 51 135 -3 19 -17 52 -31 73 l-24 37 167 0 168 -1
-50 -42z m1915 37 c0 -4 -16 -25 -36 -47 -20 -22 -48 -65 -63 -96 -23 -50 -26
-68 -26 -168 0 -71 -4 -109 -10 -105 -5 3 -55 44 -110 91 -141 119 -244 194
-362 263 -57 33 -103 62 -103 64 0 2 160 4 355 4 195 0 355 -3 355 -6z m438
-69 c26 -41 50 -75 54 -75 3 0 12 16 18 35 13 41 20 43 46 14 l19 -21 5 38 c4
34 8 39 30 36 50 -5 106 -83 145 -200 17 -52 17 -56 -5 -148 l-22 -95 -56 -45
c-32 -24 -86 -59 -122 -77 -62 -31 -70 -32 -180 -32 -140 1 -196 21 -263 95
-49 55 -67 103 -67 182 0 99 64 159 132 126 26 -12 36 -25 45 -60 9 -33 21
-51 45 -66 37 -24 48 -16 48 33 0 43 -39 105 -80 126 -78 42 -163 13 -209 -70
-20 -36 -24 -58 -23 -115 0 -39 7 -90 16 -113 17 -47 12 -52 -22 -23 -37 30
-54 87 -60 191 -7 144 30 234 128 305 l45 34 143 0 143 0 47 -75z m344 23 c3
-29 2 -74 -1 -101 l-6 -47 -29 55 c-15 30 -46 75 -68 100 l-40 45 70 0 69 0 5
-52z m-2172 0 c0 -80 -3 -83 -76 -83 -63 0 -67 -1 -100 -37 -42 -47 -47 -107
-12 -145 22 -24 62 -31 73 -13 3 6 2 10 -4 10 -16 0 -41 30 -41 51 0 11 12 31
26 46 20 20 31 24 57 19 53 -11 67 -31 67 -101 0 -54 -4 -66 -26 -88 -47 -47
-126 -48 -195 -3 -47 31 -72 85 -71 153 1 133 107 230 255 232 l47 1 0 -42z
m680 -99 c52 -27 138 -79 190 -114 102 -68 314 -234 308 -240 -2 -3 -26 3 -53
11 -78 24 -227 29 -314 10 -41 -9 -76 -15 -77 -13 -1 1 -41 54 -88 117 l-86
115 0 83 c0 59 3 82 13 82 6 0 55 -23 107 -51z m-55 -290 c32 -44 56 -81 54
-83 -14 -10 -110 -66 -114 -66 -3 0 -5 52 -5 115 0 63 2 115 4 115 3 0 30 -36
61 -81z m2182 12 c39 -28 73 -82 73 -116 0 -9 -7 -29 -15 -45 -25 -48 -65 -41
-125 20 l-49 50 16 38 c8 20 19 47 24 60 11 29 28 28 76 -7z m-1592 -155 c73
-25 114 -45 290 -143 142 -79 282 -95 410 -49 38 14 70 24 72 23 1 -2 -20 -30
-46 -63 -48 -59 -167 -158 -226 -187 -90 -44 -272 -55 -379 -23 -127 38 -270
128 -377 237 -52 52 -179 211 -179 223 0 10 69 14 210 12 128 -3 154 -6 225
-30z m-411 -113 c42 -55 106 -129 143 -163 133 -122 298 -210 424 -226 84 -10
89 -20 18 -33 -143 -25 -344 -34 -496 -22 -171 13 -193 18 -193 38 0 13 -3 13
-15 3 -10 -8 -30 -10 -63 -5 l-49 6 -7 121 c-3 67 -6 159 -6 206 0 82 1 85 32
114 37 35 120 79 129 70 4 -4 41 -53 83 -109z"/>
<path d="M380 6985 l0 -275 109 0 110 0 -50 -51 c-238 -244 -314 -634 -188
-959 94 -244 333 -443 645 -536 107 -32 317 -44 430 -25 102 17 234 57 335
100 49 21 89 38 89 36 0 -1 -20 -49 -44 -107 -87 -207 -155 -452 -191 -688
-22 -142 -31 -484 -16 -633 38 -391 206 -877 407 -1178 157 -234 325 -390 529
-490 316 -154 653 -133 902 55 67 50 125 113 149 159 28 52 9 50 -55 -6 -146
-127 -301 -186 -491 -186 -178 -1 -297 35 -447 135 -175 116 -351 330 -457
555 -94 198 -176 501 -206 759 -6 52 -14 188 -17 301 -5 167 -3 229 12 329 17
122 42 226 44 183 1 -31 90 -159 154 -221 l54 -53 103 168 c57 92 114 183 126
202 l23 34 100 -202 c56 -110 103 -201 106 -201 11 0 56 104 75 172 26 96 37
200 50 448 25 480 74 729 195 971 132 268 339 481 630 649 240 139 597 287
671 278 26 -3 24 -5 -32 -42 -77 -51 -224 -201 -296 -302 -112 -157 -191 -346
-224 -535 -22 -129 -15 -351 16 -464 78 -289 270 -531 533 -670 272 -145 568
-161 846 -46 41 17 76 29 78 27 2 -2 -3 -212 -12 -467 -52 -1574 -110 -2334
-189 -2453 -43 -67 -437 -282 -833 -456 -35 -16 -62 -39 -100 -88 l-53 -67 0
-210 0 -211 58 -57 57 -57 110 10 c300 26 928 64 1335 80 527 22 1870 4 2995
-40 281 -11 627 -24 770 -30 1011 -39 1768 -10 2505 96 975 141 1866 467 2762
1010 450 274 809 549 1226 941 l119 112 23 -24 c34 -36 162 -122 223 -150 144
-66 330 -83 502 -45 155 35 359 150 342 194 -12 31 -108 64 -282 96 -211 39
-272 65 -358 152 -35 35 -73 84 -87 110 l-24 47 32 38 c67 79 271 353 347 466
43 64 82 117 86 117 5 0 14 -10 20 -22 23 -45 138 -184 206 -250 84 -81 169
-141 238 -167 136 -51 367 -74 501 -50 195 34 431 162 566 307 225 240 308
655 201 997 -55 175 -170 352 -331 507 -213 205 -379 298 -700 394 -8 2 -11
12 -8 21 41 133 116 743 116 938 l0 63 78 21 c141 37 259 61 394 77 183 23
540 15 717 -15 577 -99 1008 -350 1173 -683 60 -123 70 -167 75 -343 4 -139 2
-172 -16 -248 -75 -314 -345 -547 -634 -547 -306 0 -545 186 -587 456 -30 193
61 374 227 452 51 24 70 27 158 27 83 0 108 -4 149 -23 80 -37 132 -85 168
-160 30 -61 33 -74 33 -162 0 -83 -3 -102 -27 -150 -15 -30 -41 -71 -57 -91
-40 -48 -147 -103 -259 -133 -133 -35 -140 -45 -66 -78 96 -42 266 -34 374 19
77 37 186 150 233 240 64 122 79 236 53 385 -21 114 -67 199 -156 288 -87 87
-172 140 -285 177 -69 23 -98 27 -205 27 -105 1 -136 -3 -195 -22 -216 -72
-381 -222 -461 -420 -48 -120 -59 -179 -58 -327 1 -122 4 -151 28 -230 72
-239 230 -422 453 -527 146 -69 213 -82 413 -82 192 1 254 12 403 74 274 114
491 374 574 689 34 128 38 368 9 501 -100 459 -380 768 -866 956 l-75 29 443
3 442 2 0 275 0 275 -9910 0 -9910 0 0 -275z m2726 -298 c-16 -12 -68 -51
-115 -86 -47 -35 -126 -98 -176 -139 -128 -107 -425 -409 -520 -528 -195 -245
-633 -505 -949 -564 -285 -53 -637 113 -760 358 -47 94 -66 176 -66 292 0 185
57 329 174 445 119 118 254 170 436 169 119 -1 229 -30 310 -82 147 -94 204
-265 150 -457 -12 -44 -31 -93 -43 -109 -46 -66 -179 -86 -299 -45 -143 48
-200 93 -301 237 -32 45 -64 82 -72 82 -36 0 -54 -133 -31 -238 21 -101 58
-164 151 -257 198 -198 460 -248 693 -134 267 131 365 544 206 866 -20 40 -63
104 -95 143 l-59 70 697 -1 698 0 -29 -22z m8145 -94 c-182 -183 -293 -365
-380 -628 -96 -289 -125 -623 -77 -905 22 -133 28 -180 21 -180 -3 0 -137 112
-298 248 -946 805 -1452 1169 -2062 1484 l-190 98 1551 0 1552 0 -117 -117z
m1851 70 c69 -75 119 -148 237 -345 104 -174 171 -268 192 -268 14 0 66 87 89
148 12 30 24 86 28 124 l7 68 40 -21 c55 -30 124 -89 160 -138 17 -22 33 -41
37 -41 16 0 51 151 57 245 l6 100 55 -2 c74 -3 182 -57 260 -130 102 -94 228
-298 315 -507 52 -125 145 -415 145 -451 0 -133 -166 -839 -205 -869 -241
-192 -626 -461 -741 -519 -308 -155 -778 -200 -1199 -116 -120 24 -309 86
-396 129 -402 201 -640 588 -643 1045 -1 152 13 218 75 343 49 101 129 186
215 228 48 23 72 29 124 28 75 0 156 -24 220 -65 80 -50 108 -101 120 -214 9
-90 31 -144 87 -212 43 -53 139 -123 227 -164 65 -30 68 -31 81 -13 49 65 67
219 40 339 -27 122 -104 265 -190 351 -84 84 -210 153 -330 179 -102 23 -272
16 -365 -14 -237 -76 -413 -286 -491 -587 -21 -79 -23 -112 -23 -284 0 -162 3
-214 22 -307 25 -123 59 -234 103 -332 16 -35 23 -59 16 -54 -6 6 -64 51 -127
101 l-115 90 -38 103 c-157 423 -180 910 -61 1274 97 297 333 582 639 772 l50
32 616 0 616 1 45 -47z m1693 -90 c8 -142 0 -616 -11 -666 -6 -26 -9 -23 -39
45 -121 277 -272 505 -446 676 l-84 82 287 0 286 0 7 -137z m-9563 -165 c-2
-150 -6 -275 -8 -277 -2 -2 -27 6 -56 18 -128 51 -263 63 -393 36 -256 -54
-464 -295 -465 -536 0 -176 81 -323 213 -384 67 -32 157 -34 205 -5 34 21 65
71 47 77 -66 23 -122 63 -149 107 -44 70 -48 156 -12 231 15 30 47 72 72 94
119 105 309 92 448 -30 87 -77 83 -61 76 -340 l-6 -245 -37 -52 c-108 -146
-248 -219 -437 -229 -87 -5 -120 -2 -190 16 -345 87 -580 371 -597 723 -23
449 274 876 702 1011 44 14 114 30 155 36 41 6 86 13 100 15 14 2 95 4 181 5
l155 1 -4 -272z m2668 -168 c515 -234 1065 -564 1595 -959 135 -101 749 -586
925 -731 l35 -29 -60 20 c-105 35 -319 88 -441 108 -206 35 -323 44 -544 44
-306 -1 -533 -30 -793 -104 -59 -16 -111 -28 -116 -24 -6 3 -45 56 -87 118
-208 300 -456 635 -606 814 l-68 82 0 365 0 366 23 -9 c12 -5 74 -32 137 -61z
m-32 -1252 c139 -195 362 -523 362 -535 0 -5 -35 -26 -77 -47 -107 -52 -228
-126 -323 -197 l-80 -59 0 328 c0 180 -3 405 -7 501 -4 122 -3 172 4 168 6 -4
60 -76 121 -159z m9551 -34 c183 -84 377 -278 442 -442 19 -46 23 -77 24 -157
0 -88 -3 -107 -26 -156 -43 -91 -88 -134 -164 -154 -81 -22 -160 -17 -203 14
-17 12 -63 64 -101 115 -80 106 -167 190 -244 237 l-54 32 64 148 c34 82 82
207 105 279 49 147 35 140 157 84z m-7684 -634 c353 -17 564 -51 825 -135 325
-105 597 -237 1030 -497 727 -438 1245 -565 1825 -447 128 27 339 97 462 154
53 25 98 44 99 42 4 -4 -138 -189 -220 -286 -303 -358 -811 -750 -1096 -845
-934 -311 -1866 -104 -2762 614 -271 218 -552 500 -784 790 -129 160 -394 523
-394 539 0 17 290 59 488 70 203 12 284 12 527 1z m-1210 -298 c304 -447 616
-818 920 -1095 659 -601 1397 -952 2108 -1003 54 -4 96 -8 94 -10 -2 -2 -93
-21 -203 -43 -504 -102 -967 -143 -1604 -143 -485 0 -855 25 -1297 88 -94 13
-176 24 -182 24 -6 0 -11 20 -11 44 0 25 -5 57 -10 71 l-10 26 -31 -23 c-17
-13 -51 -37 -75 -54 l-45 -32 -204 42 c-113 24 -207 44 -209 47 -2 2 -6 397
-8 877 l-5 873 56 66 c68 81 190 181 302 248 82 48 284 144 304 144 6 0 55
-66 110 -147z"/>
</g>
</svg>
